<svg xmlns="http://www.w3.org/2000/svg" viewBox="0 0 360 250" font-family="Georgia,'Times New Roman',serif">
<rect width="360" height="250" fill="#1b1712"/>
<text x="22" y="30" font-size="11" letter-spacing="1.4" fill="#a99a83">COGNATES · shared ancestry</text>
<path d="M180 84 C180 170 40 155 40 188" fill="none" stroke="#6f6452" stroke-width="1.4"/><path d="M180 84 C180 170 110 155 110 188" fill="none" stroke="#6f6452" stroke-width="1.4"/><path d="M180 84 C180 170 180 155 180 188" fill="none" stroke="#6f6452" stroke-width="1.4"/><path d="M180 84 C180 170 250 155 250 188" fill="none" stroke="#6f6452" stroke-width="1.4"/><path d="M180 84 C180 170 320 155 320 188" fill="none" stroke="#6f6452" stroke-width="1.4"/>
<rect x="108" y="52" width="144" height="32" rx="10" fill="#3a201d" stroke="#d2685f"/>
<text x="180" y="73" text-anchor="middle" font-size="14" font-weight="700" fill="#f0c9c4">*ph₂tḗr</text>
<text x="180" y="104" text-anchor="middle" font-size="9.5" fill="#a99a83">Proto-Indo-European · father</text>
<g><rect x="8" y="188" width="64" height="40" rx="9" fill="#262017" stroke="#a99a83" stroke-opacity="0.6"/><text x="40" y="205" text-anchor="middle" font-size="12.5" fill="#ece0cc">pater</text><text x="40" y="221" text-anchor="middle" font-size="9" fill="#a99a83">Latin</text></g><g><rect x="78" y="188" width="64" height="40" rx="9" fill="#262017" stroke="#a99a83" stroke-opacity="0.6"/><text x="110" y="205" text-anchor="middle" font-size="12.5" fill="#ece0cc">patḗr</text><text x="110" y="221" text-anchor="middle" font-size="9" fill="#a99a83">Greek</text></g><g><rect x="148" y="188" width="64" height="40" rx="9" fill="#262017" stroke="#a99a83" stroke-opacity="0.6"/><text x="180" y="205" text-anchor="middle" font-size="12.5" fill="#ece0cc">pitṛ́</text><text x="180" y="221" text-anchor="middle" font-size="9" fill="#a99a83">Sanskrit</text></g><g><rect x="218" y="188" width="64" height="40" rx="9" fill="#262017" stroke="#a99a83" stroke-opacity="0.6"/><text x="250" y="205" text-anchor="middle" font-size="12.5" fill="#ece0cc">father</text><text x="250" y="221" text-anchor="middle" font-size="9" fill="#a99a83">English</text></g><g><rect x="288" y="188" width="64" height="40" rx="9" fill="#262017" stroke="#a99a83" stroke-opacity="0.6"/><text x="320" y="205" text-anchor="middle" font-size="12.5" fill="#ece0cc">Vater</text><text x="320" y="221" text-anchor="middle" font-size="9" fill="#a99a83">German</text></g>
<text x="22" y="238" font-size="11" font-style="italic" fill="#6f6452">How one ancient root survives across languages.</text>
</svg>