<svg xmlns="http://www.w3.org/2000/svg" viewBox="0 0 360 432" font-family="Georgia,'Times New Roman',serif">
<rect width="360" height="432" fill="#1b1712"/>
<text x="16" y="20" font-size="11" letter-spacing="1.3" fill="#a99a83">WORD FAMILY · scrībere · 59 words in 13 groups</text>
<path d="M86 214 C127 214 127 40 166 40" fill="none" stroke="#6f5a3a" stroke-width="2.2" stroke-linecap="round"/><rect x="168" y="27" width="176" height="26" rx="13" fill="#262017" stroke="#7fae7a"/><text x="180" y="44" font-size="12"><tspan fill="#9ed19a" font-weight="700">scrīb-</tspan><tspan fill="#a99a83" font-size="9.5">  base</tspan></text><text x="332" y="44" text-anchor="end" font-size="10.5" fill="#a99a83">5 ▸</text><path d="M86 214 C127 214 127 70.5 166 70.5" fill="none" stroke="#6f5a3a" stroke-width="1.84" stroke-linecap="round"/><rect x="168" y="57.5" width="176" height="26" rx="13" fill="#262017" stroke="#4a4234"/><text x="180" y="74.5" font-size="12"><tspan fill="#d2685f" font-weight="700">a-</tspan><tspan fill="#a99a83" font-size="9.5">  to</tspan></text><text x="332" y="74.5" text-anchor="end" font-size="10.5" fill="#a99a83">3 ▸</text><path d="M86 214 C127 214 127 101 166 101" fill="none" stroke="#6f5a3a" stroke-width="2.38" stroke-linecap="round"/><rect x="168" y="88" width="176" height="26" rx="13" fill="#262017" stroke="#4a4234"/><text x="180" y="105" font-size="12"><tspan fill="#d2685f" font-weight="700">de-</tspan><tspan fill="#a99a83" font-size="9.5">  down</tspan></text><text x="332" y="105" text-anchor="end" font-size="10.5" fill="#a99a83">6 ▸</text><path d="M86 214 C127 214 127 131.5 166 131.5" fill="none" stroke="#6f5a3a" stroke-width="2.02" stroke-linecap="round"/><rect x="168" y="118.5" width="176" height="26" rx="13" fill="#262017" stroke="#4a4234"/><text x="180" y="135.5" font-size="12"><tspan fill="#d2685f" font-weight="700">in-</tspan><tspan fill="#a99a83" font-size="9.5">  into</tspan></text><text x="332" y="135.5" text-anchor="end" font-size="10.5" fill="#a99a83">4 ▸</text><path d="M86 214 C127 214 127 162 166 162" fill="none" stroke="#6f5a3a" stroke-width="2.2" stroke-linecap="round"/><rect x="168" y="149" width="176" height="26" rx="13" fill="#262017" stroke="#4a4234"/><text x="180" y="166" font-size="12"><tspan fill="#d2685f" font-weight="700">pre-</tspan><tspan fill="#a99a83" font-size="9.5">  before</tspan></text><text x="332" y="166" text-anchor="end" font-size="10.5" fill="#a99a83">5 ▸</text><path d="M86 214 C127 214 127 192.5 166 192.5" fill="none" stroke="#6f5a3a" stroke-width="1.84" stroke-linecap="round"/><rect x="168" y="179.5" width="176" height="26" rx="13" fill="#262017" stroke="#4a4234"/><text x="180" y="196.5" font-size="12"><tspan fill="#d2685f" font-weight="700">pro-</tspan><tspan fill="#a99a83" font-size="9.5">  forth</tspan></text><text x="332" y="196.5" text-anchor="end" font-size="10.5" fill="#a99a83">3 ▸</text><path d="M86 214 C127 214 127 223 166 223" fill="none" stroke="#6f5a3a" stroke-width="2.2" stroke-linecap="round"/><rect x="168" y="210" width="176" height="26" rx="13" fill="#262017" stroke="#4a4234"/><text x="180" y="227" font-size="12"><tspan fill="#d2685f" font-weight="700">sub-</tspan><tspan fill="#a99a83" font-size="9.5">  under</tspan></text><text x="332" y="227" text-anchor="end" font-size="10.5" fill="#a99a83">5 ▸</text><path d="M86 214 C127 214 127 253.5 166 253.5" fill="none" stroke="#6f5a3a" stroke-width="2.2" stroke-linecap="round"/><rect x="168" y="240.5" width="176" height="26" rx="13" fill="#262017" stroke="#4a4234"/><text x="180" y="257.5" font-size="12"><tspan fill="#d2685f" font-weight="700">trans-</tspan><tspan fill="#a99a83" font-size="9.5">  across</tspan></text><text x="332" y="257.5" text-anchor="end" font-size="10.5" fill="#a99a83">5 ▸</text><path d="M86 214 C127 214 127 284 166 284" fill="none" stroke="#6f5a3a" stroke-width="1.6600000000000001" stroke-linecap="round"/><rect x="168" y="271" width="176" height="26" rx="13" fill="#262017" stroke="#4a4234"/><text x="180" y="288" font-size="12"><tspan fill="#d2685f" font-weight="700">con-</tspan><tspan fill="#a99a83" font-size="9.5">  with</tspan></text><text x="332" y="288" text-anchor="end" font-size="10.5" fill="#a99a83">2 ▸</text><path d="M86 214 C127 214 127 314.5 166 314.5" fill="none" stroke="#6f5a3a" stroke-width="1.84" stroke-linecap="round"/><rect x="168" y="301.5" width="176" height="26" rx="13" fill="#262017" stroke="#4a4234"/><text x="180" y="318.5" font-size="12"><tspan fill="#d2685f" font-weight="700">circum-</tspan><tspan fill="#a99a83" font-size="9.5">  around</tspan></text><text x="332" y="318.5" text-anchor="end" font-size="10.5" fill="#a99a83">3 ▸</text><path d="M86 214 C127 214 127 345 166 345" fill="none" stroke="#6f5a3a" stroke-width="1.84" stroke-linecap="round"/><rect x="168" y="332" width="176" height="26" rx="13" fill="#262017" stroke="#4a4234"/><text x="180" y="349" font-size="12"><tspan fill="#d2685f" font-weight="700">super-</tspan><tspan fill="#a99a83" font-size="9.5">  above</tspan></text><text x="332" y="349" text-anchor="end" font-size="10.5" fill="#a99a83">3 ▸</text><path d="M86 214 C127 214 127 375.5 166 375.5" fill="none" stroke="#6f5a3a" stroke-width="1.48" stroke-linecap="round"/><rect x="168" y="362.5" width="176" height="26" rx="13" fill="#262017" stroke="#4a4234"/><text x="180" y="379.5" font-size="12"><tspan fill="#d2685f" font-weight="700">post-</tspan><tspan fill="#a99a83" font-size="9.5">  after</tspan></text><text x="332" y="379.5" text-anchor="end" font-size="10.5" fill="#a99a83">1 ▸</text><path d="M86 214 C127 214 127 406 166 406" fill="none" stroke="#6f5a3a" stroke-width="1.6600000000000001" stroke-linecap="round"/><rect x="168" y="393" width="176" height="26" rx="13" fill="#262017" stroke="#4a4234"/><text x="180" y="410" font-size="12"><tspan fill="#d2685f" font-weight="700">non-</tspan><tspan fill="#a99a83" font-size="9.5">  not</tspan></text><text x="332" y="410" text-anchor="end" font-size="10.5" fill="#a99a83">2 ▸</text>
<circle cx="52" cy="214" r="34" fill="#23311f" stroke="#7fae7a" stroke-width="1.6"/>
<text x="52" y="212" text-anchor="middle" font-size="12" font-weight="700" fill="#9ed19a">scrīb-</text>
<text x="52" y="226" text-anchor="middle" font-size="8" fill="#a99a83">to write</text>
<text x="16" y="426" font-size="9" font-style="italic" fill="#6f6452">Version A · fan tree — every prefix branch; tap one to grow its words</text>
</svg>