<svg xmlns="http://www.w3.org/2000/svg" viewBox="0 0 360 214" font-family="Georgia,serif"><rect width="360" height="214" fill="#1b1712"/><defs>
<linearGradient id="gl" x1="0" y1="0" x2="0" y2="1"><stop offset="0" stop-color="#fff" stop-opacity="0.15"/><stop offset="0.5" stop-color="#fff" stop-opacity="0.04"/><stop offset="1" stop-color="#fff" stop-opacity="0.09"/></linearGradient>
<linearGradient id="sheen" x1="0" y1="0" x2="1" y2="1"><stop offset="0" stop-color="#fff" stop-opacity="0.18"/><stop offset="0.35" stop-color="#fff" stop-opacity="0.02"/><stop offset="1" stop-color="#fff" stop-opacity="0.05"/></linearGradient>
</defs><text x="16" y="22" font-size="11" letter-spacing="1.2" fill="#a99a83">OPTION 2 · GLASS PANES PER LEVEL</text><g opacity="0.5"><rect x="20" y="40" width="252" height="58" rx="16" fill="url(#gl)" stroke="rgba(255,250,240,0.22)"/><rect x="20" y="40" width="252" height="58" rx="16" fill="url(#sheen)"/></g><text x="32" y="55" font-size="8.5" fill="#a99a83">forms</text><g opacity="0.7"><rect x="44" y="74" width="252" height="58" rx="16" fill="url(#gl)" stroke="rgba(255,250,240,0.22)"/><rect x="44" y="74" width="252" height="58" rx="16" fill="url(#sheen)"/></g><text x="56" y="89" font-size="8.5" fill="#a99a83">prefixes</text><g opacity="1"><rect x="68" y="108" width="252" height="58" rx="16" fill="url(#gl)" stroke="rgba(255,250,240,0.22)"/><rect x="68" y="108" width="252" height="58" rx="16" fill="url(#sheen)"/></g><text x="80" y="123" font-size="8.5" fill="#a99a83">words</text><g opacity="1"><rect x="86" y="126" width="150" height="30" rx="15" fill="url(#gl)" stroke="rgba(255,250,240,0.28)"/><rect x="86" y="126" width="150" height="30" rx="15" fill="url(#sheen)"/><rect x="92" y="127.5" width="138" height="1.4" rx="0.7" fill="#fff" opacity="0.35"/></g><text x="161" y="141" font-size="10.5" fill="#ece0cc" text-anchor="middle">de·scrib·able</text><text x="161" y="152" font-size="8" fill="#a99a83" text-anchor="middle">able to be described</text><text x="16" y="198" font-size="10" fill="#a99a83">Each level floats on its own glass pane; back peels the top sheet away.</text></svg>