<svg xmlns="http://www.w3.org/2000/svg" viewBox="0 0 360 340" font-family="Georgia,'Times New Roman',serif">
<rect width="360" height="340" fill="#1b1712"/>
<text x="16" y="20" font-size="10.5" fill="#a99a83"><tspan fill="#ece0cc">‹ </tspan><tspan fill="#9ed19a">scrībere</tspan>  ›  Spatial · direction</text>
<path d="M86 160 C117 160 117 44 148 44" fill="none" stroke="#6f5a3a" stroke-width="1.6" stroke-linecap="round"/><rect x="148" y="28" width="196" height="32" rx="11" fill="#262017" stroke="#d2685f" stroke-opacity="0.85"/><text x="160" y="42" font-size="12"><tspan fill="#d2685f" font-weight="700">ad-</tspan><tspan fill="#a99a83" font-size="10"> + </tspan><tspan fill="#9ed19a">scrībere</tspan></text><text x="160" y="55" font-size="9" fill="#a99a83">to · 3 words</text><text x="334" y="46" text-anchor="end" font-size="11" fill="#a99a83">▸</text><path d="M86 160 C117 160 117 82 148 82" fill="none" stroke="#6f5a3a" stroke-width="1.6" stroke-linecap="round"/><rect x="148" y="66" width="196" height="32" rx="11" fill="#262017" stroke="#d2685f" stroke-opacity="0.85"/><text x="160" y="80" font-size="12"><tspan fill="#d2685f" font-weight="700">de-</tspan><tspan fill="#a99a83" font-size="10"> + </tspan><tspan fill="#9ed19a">scrībere</tspan></text><text x="160" y="93" font-size="9" fill="#a99a83">down, off · 9 words</text><text x="334" y="84" text-anchor="end" font-size="11" fill="#a99a83">▸</text><path d="M86 160 C117 160 117 120 148 120" fill="none" stroke="#6f5a3a" stroke-width="1.6" stroke-linecap="round"/><rect x="148" y="104" width="196" height="32" rx="11" fill="#262017" stroke="#d2685f" stroke-opacity="0.85"/><text x="160" y="118" font-size="12"><tspan fill="#d2685f" font-weight="700">in-</tspan><tspan fill="#a99a83" font-size="10"> + </tspan><tspan fill="#9ed19a">scrībere</tspan></text><text x="160" y="131" font-size="9" fill="#a99a83">into, on · 4 words</text><text x="334" y="122" text-anchor="end" font-size="11" fill="#a99a83">▸</text><path d="M86 160 C117 160 117 158 148 158" fill="none" stroke="#6f5a3a" stroke-width="1.6" stroke-linecap="round"/><rect x="148" y="142" width="196" height="32" rx="11" fill="#262017" stroke="#d2685f" stroke-opacity="0.85"/><text x="160" y="156" font-size="12"><tspan fill="#d2685f" font-weight="700">pro-</tspan><tspan fill="#a99a83" font-size="10"> + </tspan><tspan fill="#9ed19a">scrībere</tspan></text><text x="160" y="169" font-size="9" fill="#a99a83">forward · 3 words</text><text x="334" y="160" text-anchor="end" font-size="11" fill="#a99a83">▸</text><path d="M86 160 C117 160 117 196 148 196" fill="none" stroke="#6f5a3a" stroke-width="1.6" stroke-linecap="round"/><rect x="148" y="180" width="196" height="32" rx="11" fill="#262017" stroke="#d2685f" stroke-opacity="0.85"/><text x="160" y="194" font-size="12"><tspan fill="#d2685f" font-weight="700">sub-</tspan><tspan fill="#a99a83" font-size="10"> + </tspan><tspan fill="#9ed19a">scrībere</tspan></text><text x="160" y="207" font-size="9" fill="#a99a83">under · 6 words</text><text x="334" y="198" text-anchor="end" font-size="11" fill="#a99a83">▸</text><path d="M86 160 C117 160 117 234 148 234" fill="none" stroke="#6f5a3a" stroke-width="1.6" stroke-linecap="round"/><rect x="148" y="218" width="196" height="32" rx="11" fill="#262017" stroke="#d2685f" stroke-opacity="0.85"/><text x="160" y="232" font-size="12"><tspan fill="#d2685f" font-weight="700">super-</tspan><tspan fill="#a99a83" font-size="10"> + </tspan><tspan fill="#9ed19a">scrībere</tspan></text><text x="160" y="245" font-size="9" fill="#a99a83">over · 3 words</text><text x="334" y="236" text-anchor="end" font-size="11" fill="#a99a83">▸</text><path d="M86 160 C117 160 117 272 148 272" fill="none" stroke="#6f5a3a" stroke-width="1.6" stroke-linecap="round"/><rect x="148" y="256" width="196" height="32" rx="11" fill="#262017" stroke="#d2685f" stroke-opacity="0.85"/><text x="160" y="270" font-size="12"><tspan fill="#d2685f" font-weight="700">trans-</tspan><tspan fill="#a99a83" font-size="10"> + </tspan><tspan fill="#9ed19a">scrībere</tspan></text><text x="160" y="283" font-size="9" fill="#a99a83">across · 5 words</text><text x="334" y="274" text-anchor="end" font-size="11" fill="#a99a83">▸</text><path d="M86 160 C117 160 117 310 148 310" fill="none" stroke="#6f5a3a" stroke-width="1.6" stroke-linecap="round"/><rect x="148" y="294" width="196" height="32" rx="11" fill="#262017" stroke="#d2685f" stroke-opacity="0.85"/><text x="160" y="308" font-size="12"><tspan fill="#d2685f" font-weight="700">circum-</tspan><tspan fill="#a99a83" font-size="10"> + </tspan><tspan fill="#9ed19a">scrībere</tspan></text><text x="160" y="321" font-size="9" fill="#a99a83">around · 3 words</text><text x="334" y="312" text-anchor="end" font-size="11" fill="#a99a83">▸</text>
<circle cx="56" cy="160" r="30" fill="#262017" stroke="#4a4234" stroke-width="1.4"/>
<text x="56" y="157" text-anchor="middle" font-size="9.5" fill="#ece0cc">Spatial</text>
<text x="56" y="169" text-anchor="middle" font-size="7.5" fill="#a99a83">8 prefixes</text>
<text x="16" y="332" font-size="9" font-style="italic" fill="#6f6452">Each chip keeps + scrībere in view · tap a prefix for its words &amp; definitions</text>
</svg>